<mxfile host="Electron" modified="2023-09-01T13:00:14.554Z" agent="Mozilla/5.0 (Windows NT 10.0; Win64; x64) AppleWebKit/537.36 (KHTML, like Gecko) draw.io/21.6.5 Chrome/114.0.5735.243 Electron/25.3.1 Safari/537.36" etag="YagUSi14N3F_7RS11DiJ" version="21.6.5" type="device">
  <diagram name="Page-1" id="r9nEY2Yy7e56UqKPWLLR">
    <mxGraphModel dx="1227" dy="618" grid="1" gridSize="10" guides="1" tooltips="1" connect="1" arrows="1" fold="1" page="1" pageScale="1" pageWidth="850" pageHeight="1100" math="0" shadow="0">
      <root>
        <mxCell id="0" />
        <mxCell id="1" parent="0" />
        <mxCell id="-XwaJixAXSmG_WCZRdY7-1" value="" style="rounded=0;whiteSpace=wrap;html=1;" vertex="1" parent="1">
          <mxGeometry x="180" y="40" width="370" height="610" as="geometry" />
        </mxCell>
        <mxCell id="-XwaJixAXSmG_WCZRdY7-4" value="Apply Internship" style="ellipse;whiteSpace=wrap;html=1;" vertex="1" parent="1">
          <mxGeometry x="195" y="50" width="100" height="60" as="geometry" />
        </mxCell>
        <mxCell id="-XwaJixAXSmG_WCZRdY7-5" value="Request Testimonial" style="ellipse;whiteSpace=wrap;html=1;" vertex="1" parent="1">
          <mxGeometry x="195" y="310" width="100" height="60" as="geometry" />
        </mxCell>
        <mxCell id="-XwaJixAXSmG_WCZRdY7-6" value="CV" style="ellipse;whiteSpace=wrap;html=1;" vertex="1" parent="1">
          <mxGeometry x="280" y="160" width="90" height="50" as="geometry" />
        </mxCell>
        <mxCell id="-XwaJixAXSmG_WCZRdY7-7" value="Portfolio Generation" style="ellipse;whiteSpace=wrap;html=1;" vertex="1" parent="1">
          <mxGeometry x="190" y="240" width="100" height="60" as="geometry" />
        </mxCell>
        <mxCell id="-XwaJixAXSmG_WCZRdY7-8" value="Browse Internship" style="ellipse;whiteSpace=wrap;html=1;" vertex="1" parent="1">
          <mxGeometry x="180" y="120" width="100" height="60" as="geometry" />
        </mxCell>
        <mxCell id="-XwaJixAXSmG_WCZRdY7-9" value="Student" style="shape=umlActor;verticalLabelPosition=bottom;verticalAlign=top;html=1;outlineConnect=0;" vertex="1" parent="1">
          <mxGeometry x="10" y="220" width="60" height="110" as="geometry" />
        </mxCell>
        <mxCell id="-XwaJixAXSmG_WCZRdY7-10" value="" style="endArrow=none;html=1;rounded=0;exitX=1;exitY=0.3333333333333333;exitDx=0;exitDy=0;exitPerimeter=0;entryX=0;entryY=0.5;entryDx=0;entryDy=0;" edge="1" parent="1" source="-XwaJixAXSmG_WCZRdY7-9" target="-XwaJixAXSmG_WCZRdY7-4">
          <mxGeometry width="50" height="50" relative="1" as="geometry">
            <mxPoint x="90" y="160" as="sourcePoint" />
            <mxPoint x="180" y="270" as="targetPoint" />
          </mxGeometry>
        </mxCell>
        <mxCell id="-XwaJixAXSmG_WCZRdY7-11" value="" style="endArrow=none;html=1;rounded=0;entryX=0;entryY=0.5;entryDx=0;entryDy=0;exitX=0.5;exitY=0.5;exitDx=0;exitDy=0;exitPerimeter=0;" edge="1" parent="1" source="-XwaJixAXSmG_WCZRdY7-9" target="-XwaJixAXSmG_WCZRdY7-8">
          <mxGeometry width="50" height="50" relative="1" as="geometry">
            <mxPoint x="90" y="170" as="sourcePoint" />
            <mxPoint x="210" y="100" as="targetPoint" />
          </mxGeometry>
        </mxCell>
        <mxCell id="-XwaJixAXSmG_WCZRdY7-12" value="" style="endArrow=none;html=1;rounded=0;entryX=0;entryY=0.5;entryDx=0;entryDy=0;exitX=0.5;exitY=0.5;exitDx=0;exitDy=0;exitPerimeter=0;" edge="1" parent="1" source="-XwaJixAXSmG_WCZRdY7-9" target="-XwaJixAXSmG_WCZRdY7-6">
          <mxGeometry width="50" height="50" relative="1" as="geometry">
            <mxPoint x="75" y="180" as="sourcePoint" />
            <mxPoint x="210" y="170" as="targetPoint" />
          </mxGeometry>
        </mxCell>
        <mxCell id="-XwaJixAXSmG_WCZRdY7-13" value="" style="endArrow=none;html=1;rounded=0;exitX=0.5;exitY=0.5;exitDx=0;exitDy=0;exitPerimeter=0;entryX=0.05;entryY=0.297;entryDx=0;entryDy=0;entryPerimeter=0;" edge="1" parent="1" source="-XwaJixAXSmG_WCZRdY7-9" target="-XwaJixAXSmG_WCZRdY7-7">
          <mxGeometry width="50" height="50" relative="1" as="geometry">
            <mxPoint x="75" y="180" as="sourcePoint" />
            <mxPoint x="210" y="240" as="targetPoint" />
          </mxGeometry>
        </mxCell>
        <mxCell id="-XwaJixAXSmG_WCZRdY7-14" value="" style="endArrow=none;html=1;rounded=0;entryX=0.021;entryY=0.376;entryDx=0;entryDy=0;entryPerimeter=0;exitX=0.5;exitY=0.5;exitDx=0;exitDy=0;exitPerimeter=0;" edge="1" parent="1" source="-XwaJixAXSmG_WCZRdY7-9" target="-XwaJixAXSmG_WCZRdY7-5">
          <mxGeometry width="50" height="50" relative="1" as="geometry">
            <mxPoint x="75" y="180" as="sourcePoint" />
            <mxPoint x="215" y="298" as="targetPoint" />
          </mxGeometry>
        </mxCell>
        <mxCell id="-XwaJixAXSmG_WCZRdY7-16" value="Register Account" style="ellipse;whiteSpace=wrap;html=1;" vertex="1" parent="1">
          <mxGeometry x="440" y="50" width="100" height="60" as="geometry" />
        </mxCell>
        <mxCell id="-XwaJixAXSmG_WCZRdY7-17" value="Announce Internship" style="ellipse;whiteSpace=wrap;html=1;" vertex="1" parent="1">
          <mxGeometry x="365" y="100" width="100" height="60" as="geometry" />
        </mxCell>
        <mxCell id="-XwaJixAXSmG_WCZRdY7-18" value="Manage Internship" style="ellipse;whiteSpace=wrap;html=1;" vertex="1" parent="1">
          <mxGeometry x="440" y="180" width="100" height="60" as="geometry" />
        </mxCell>
        <mxCell id="-XwaJixAXSmG_WCZRdY7-19" value="CG Cut" style="ellipse;whiteSpace=wrap;html=1;" vertex="1" parent="1">
          <mxGeometry x="340" y="250" width="100" height="60" as="geometry" />
        </mxCell>
        <mxCell id="-XwaJixAXSmG_WCZRdY7-20" value="Result Announcement" style="ellipse;whiteSpace=wrap;html=1;" vertex="1" parent="1">
          <mxGeometry x="440" y="300" width="100" height="60" as="geometry" />
        </mxCell>
        <mxCell id="-XwaJixAXSmG_WCZRdY7-21" value="New Round Announcement" style="ellipse;whiteSpace=wrap;html=1;" vertex="1" parent="1">
          <mxGeometry x="365" y="360" width="100" height="60" as="geometry" />
        </mxCell>
        <mxCell id="-XwaJixAXSmG_WCZRdY7-22" value="Request Student Ban" style="ellipse;whiteSpace=wrap;html=1;" vertex="1" parent="1">
          <mxGeometry x="440" y="560" width="100" height="60" as="geometry" />
        </mxCell>
        <mxCell id="-XwaJixAXSmG_WCZRdY7-24" value="Company" style="shape=umlActor;verticalLabelPosition=bottom;verticalAlign=top;html=1;outlineConnect=0;" vertex="1" parent="1">
          <mxGeometry x="700" y="215" width="50" height="110" as="geometry" />
        </mxCell>
        <mxCell id="-XwaJixAXSmG_WCZRdY7-27" value="" style="endArrow=none;html=1;rounded=0;entryX=0.25;entryY=0.1;entryDx=0;entryDy=0;entryPerimeter=0;" edge="1" parent="1" source="-XwaJixAXSmG_WCZRdY7-16" target="-XwaJixAXSmG_WCZRdY7-24">
          <mxGeometry width="50" height="50" relative="1" as="geometry">
            <mxPoint x="570" y="210" as="sourcePoint" />
            <mxPoint x="670" y="260" as="targetPoint" />
          </mxGeometry>
        </mxCell>
        <mxCell id="-XwaJixAXSmG_WCZRdY7-28" value="" style="endArrow=none;html=1;rounded=0;exitX=1;exitY=0.5;exitDx=0;exitDy=0;entryX=0;entryY=0.3333333333333333;entryDx=0;entryDy=0;entryPerimeter=0;" edge="1" parent="1" source="-XwaJixAXSmG_WCZRdY7-17" target="-XwaJixAXSmG_WCZRdY7-24">
          <mxGeometry width="50" height="50" relative="1" as="geometry">
            <mxPoint x="532" y="82" as="sourcePoint" />
            <mxPoint x="688" y="266" as="targetPoint" />
          </mxGeometry>
        </mxCell>
        <mxCell id="-XwaJixAXSmG_WCZRdY7-29" value="" style="endArrow=none;html=1;rounded=0;exitX=1;exitY=0.5;exitDx=0;exitDy=0;entryX=0;entryY=0.3333333333333333;entryDx=0;entryDy=0;entryPerimeter=0;" edge="1" parent="1" source="-XwaJixAXSmG_WCZRdY7-18" target="-XwaJixAXSmG_WCZRdY7-24">
          <mxGeometry width="50" height="50" relative="1" as="geometry">
            <mxPoint x="460" y="160" as="sourcePoint" />
            <mxPoint x="680" y="280" as="targetPoint" />
          </mxGeometry>
        </mxCell>
        <mxCell id="-XwaJixAXSmG_WCZRdY7-30" value="" style="endArrow=none;html=1;rounded=0;exitX=1;exitY=0.5;exitDx=0;exitDy=0;entryX=0;entryY=0.3333333333333333;entryDx=0;entryDy=0;entryPerimeter=0;" edge="1" parent="1" source="-XwaJixAXSmG_WCZRdY7-19" target="-XwaJixAXSmG_WCZRdY7-24">
          <mxGeometry width="50" height="50" relative="1" as="geometry">
            <mxPoint x="535" y="230" as="sourcePoint" />
            <mxPoint x="680" y="280" as="targetPoint" />
          </mxGeometry>
        </mxCell>
        <mxCell id="-XwaJixAXSmG_WCZRdY7-31" value="" style="endArrow=none;html=1;rounded=0;exitX=0.982;exitY=0.326;exitDx=0;exitDy=0;entryX=0;entryY=0.3333333333333333;entryDx=0;entryDy=0;entryPerimeter=0;exitPerimeter=0;" edge="1" parent="1" source="-XwaJixAXSmG_WCZRdY7-20" target="-XwaJixAXSmG_WCZRdY7-24">
          <mxGeometry width="50" height="50" relative="1" as="geometry">
            <mxPoint x="460" y="310" as="sourcePoint" />
            <mxPoint x="680" y="280" as="targetPoint" />
          </mxGeometry>
        </mxCell>
        <mxCell id="-XwaJixAXSmG_WCZRdY7-32" value="" style="endArrow=none;html=1;rounded=0;exitX=0.977;exitY=0.622;exitDx=0;exitDy=0;entryX=0.5;entryY=0.5;entryDx=0;entryDy=0;entryPerimeter=0;exitPerimeter=0;" edge="1" parent="1" source="-XwaJixAXSmG_WCZRdY7-21" target="-XwaJixAXSmG_WCZRdY7-24">
          <mxGeometry width="50" height="50" relative="1" as="geometry">
            <mxPoint x="533" y="370" as="sourcePoint" />
            <mxPoint x="680" y="280" as="targetPoint" />
          </mxGeometry>
        </mxCell>
        <mxCell id="-XwaJixAXSmG_WCZRdY7-33" value="" style="endArrow=none;html=1;rounded=0;exitX=1;exitY=0;exitDx=0;exitDy=0;entryX=0.5;entryY=0.5;entryDx=0;entryDy=0;entryPerimeter=0;" edge="1" parent="1" source="-XwaJixAXSmG_WCZRdY7-22" target="-XwaJixAXSmG_WCZRdY7-24">
          <mxGeometry width="50" height="50" relative="1" as="geometry">
            <mxPoint x="458" y="457" as="sourcePoint" />
            <mxPoint x="680" y="280" as="targetPoint" />
          </mxGeometry>
        </mxCell>
        <mxCell id="-XwaJixAXSmG_WCZRdY7-34" value="Include" style="endArrow=block;endSize=16;endFill=0;html=1;rounded=0;exitX=0;exitY=0.5;exitDx=0;exitDy=0;" edge="1" parent="1" source="-XwaJixAXSmG_WCZRdY7-17" target="-XwaJixAXSmG_WCZRdY7-8">
          <mxGeometry x="-0.1545" y="-2" width="160" relative="1" as="geometry">
            <mxPoint x="270" y="340" as="sourcePoint" />
            <mxPoint x="430" y="340" as="targetPoint" />
            <mxPoint as="offset" />
          </mxGeometry>
        </mxCell>
        <mxCell id="-XwaJixAXSmG_WCZRdY7-35" value="Include" style="endArrow=block;endSize=16;endFill=0;html=1;rounded=0;exitX=0;exitY=0.5;exitDx=0;exitDy=0;entryX=0.987;entryY=0.418;entryDx=0;entryDy=0;entryPerimeter=0;" edge="1" parent="1" source="-XwaJixAXSmG_WCZRdY7-17" target="-XwaJixAXSmG_WCZRdY7-4">
          <mxGeometry x="-0.1272" y="3" width="160" relative="1" as="geometry">
            <mxPoint x="410" y="77" as="sourcePoint" />
            <mxPoint x="340" y="83" as="targetPoint" />
            <mxPoint as="offset" />
          </mxGeometry>
        </mxCell>
        <mxCell id="-XwaJixAXSmG_WCZRdY7-36" value="Extends" style="endArrow=block;endSize=16;endFill=0;html=1;rounded=0;exitX=0.256;exitY=0.969;exitDx=0;exitDy=0;exitPerimeter=0;entryX=0;entryY=0.5;entryDx=0;entryDy=0;" edge="1" parent="1" source="-XwaJixAXSmG_WCZRdY7-17" target="-XwaJixAXSmG_WCZRdY7-18">
          <mxGeometry width="160" relative="1" as="geometry">
            <mxPoint x="350" y="250" as="sourcePoint" />
            <mxPoint x="510" y="250" as="targetPoint" />
          </mxGeometry>
        </mxCell>
        <mxCell id="-XwaJixAXSmG_WCZRdY7-37" value="Extends" style="endArrow=block;endSize=16;endFill=0;html=1;rounded=0;entryX=0.5;entryY=0;entryDx=0;entryDy=0;exitX=0.002;exitY=0.623;exitDx=0;exitDy=0;exitPerimeter=0;" edge="1" parent="1" source="-XwaJixAXSmG_WCZRdY7-18" target="-XwaJixAXSmG_WCZRdY7-19">
          <mxGeometry x="-0.1586" y="-9" width="160" relative="1" as="geometry">
            <mxPoint x="406" y="188" as="sourcePoint" />
            <mxPoint x="430" y="240" as="targetPoint" />
            <mxPoint as="offset" />
          </mxGeometry>
        </mxCell>
        <mxCell id="-XwaJixAXSmG_WCZRdY7-38" value="CG" style="ellipse;whiteSpace=wrap;html=1;" vertex="1" parent="1">
          <mxGeometry x="240" y="380" width="100" height="60" as="geometry" />
        </mxCell>
        <mxCell id="-XwaJixAXSmG_WCZRdY7-39" value="" style="endArrow=none;html=1;rounded=0;entryX=0;entryY=0.5;entryDx=0;entryDy=0;exitX=0.5;exitY=0.5;exitDx=0;exitDy=0;exitPerimeter=0;" edge="1" parent="1" source="-XwaJixAXSmG_WCZRdY7-9" target="-XwaJixAXSmG_WCZRdY7-38">
          <mxGeometry width="50" height="50" relative="1" as="geometry">
            <mxPoint x="45" y="210" as="sourcePoint" />
            <mxPoint x="212" y="383" as="targetPoint" />
          </mxGeometry>
        </mxCell>
        <mxCell id="-XwaJixAXSmG_WCZRdY7-40" value="Placement Cell" style="shape=umlActor;verticalLabelPosition=bottom;verticalAlign=top;html=1;" vertex="1" parent="1">
          <mxGeometry x="280" y="680" width="45" height="80" as="geometry" />
        </mxCell>
        <mxCell id="-XwaJixAXSmG_WCZRdY7-41" value="Include" style="endArrow=block;endSize=16;endFill=0;html=1;rounded=0;entryX=0.791;entryY=0.138;entryDx=0;entryDy=0;entryPerimeter=0;" edge="1" parent="1" source="-XwaJixAXSmG_WCZRdY7-19" target="-XwaJixAXSmG_WCZRdY7-38">
          <mxGeometry x="-0.1545" y="-2" width="160" relative="1" as="geometry">
            <mxPoint x="380" y="400" as="sourcePoint" />
            <mxPoint x="310" y="406" as="targetPoint" />
            <mxPoint as="offset" />
          </mxGeometry>
        </mxCell>
        <mxCell id="-XwaJixAXSmG_WCZRdY7-42" value="Extends" style="endArrow=block;endSize=16;endFill=0;html=1;rounded=0;exitX=0;exitY=0;exitDx=0;exitDy=0;entryX=1;entryY=0.5;entryDx=0;entryDy=0;" edge="1" parent="1" source="-XwaJixAXSmG_WCZRdY7-20" target="-XwaJixAXSmG_WCZRdY7-5">
          <mxGeometry width="160" relative="1" as="geometry">
            <mxPoint x="330" y="290" as="sourcePoint" />
            <mxPoint x="490" y="290" as="targetPoint" />
          </mxGeometry>
        </mxCell>
        <mxCell id="-XwaJixAXSmG_WCZRdY7-44" value="Account" style="ellipse;whiteSpace=wrap;html=1;" vertex="1" parent="1">
          <mxGeometry x="190" y="550" width="100" height="60" as="geometry" />
        </mxCell>
        <mxCell id="-XwaJixAXSmG_WCZRdY7-45" value="" style="endArrow=none;html=1;rounded=0;entryX=0.333;entryY=0;entryDx=0;entryDy=0;entryPerimeter=0;exitX=0.5;exitY=1;exitDx=0;exitDy=0;" edge="1" parent="1" source="-XwaJixAXSmG_WCZRdY7-44" target="-XwaJixAXSmG_WCZRdY7-40">
          <mxGeometry width="50" height="50" relative="1" as="geometry">
            <mxPoint x="270" y="670" as="sourcePoint" />
            <mxPoint x="320" y="620" as="targetPoint" />
          </mxGeometry>
        </mxCell>
        <mxCell id="-XwaJixAXSmG_WCZRdY7-47" value="Managed by" style="endArrow=open;endSize=12;dashed=1;html=1;rounded=0;entryX=0;entryY=0;entryDx=0;entryDy=0;exitX=0.557;exitY=1.006;exitDx=0;exitDy=0;exitPerimeter=0;" edge="1" parent="1" source="-XwaJixAXSmG_WCZRdY7-38" target="-XwaJixAXSmG_WCZRdY7-44">
          <mxGeometry width="160" relative="1" as="geometry">
            <mxPoint x="320" y="510" as="sourcePoint" />
            <mxPoint x="480" y="510" as="targetPoint" />
          </mxGeometry>
        </mxCell>
        <mxCell id="-XwaJixAXSmG_WCZRdY7-48" value="Approve" style="endArrow=open;endSize=12;dashed=1;html=1;rounded=0;entryX=1;entryY=0.5;entryDx=0;entryDy=0;exitX=0.056;exitY=0.705;exitDx=0;exitDy=0;exitPerimeter=0;" edge="1" parent="1" source="-XwaJixAXSmG_WCZRdY7-22" target="-XwaJixAXSmG_WCZRdY7-44">
          <mxGeometry width="160" relative="1" as="geometry">
            <mxPoint x="266" y="490" as="sourcePoint" />
            <mxPoint x="285" y="539" as="targetPoint" />
          </mxGeometry>
        </mxCell>
        <mxCell id="-XwaJixAXSmG_WCZRdY7-49" value="Extends" style="endArrow=block;endSize=16;endFill=0;html=1;rounded=0;exitX=1;exitY=0;exitDx=0;exitDy=0;entryX=0.5;entryY=1;entryDx=0;entryDy=0;" edge="1" parent="1" source="-XwaJixAXSmG_WCZRdY7-7" target="-XwaJixAXSmG_WCZRdY7-6">
          <mxGeometry x="-0.3659" y="-11" width="160" relative="1" as="geometry">
            <mxPoint x="406" y="188" as="sourcePoint" />
            <mxPoint x="430" y="240" as="targetPoint" />
            <mxPoint as="offset" />
          </mxGeometry>
        </mxCell>
        <mxCell id="-XwaJixAXSmG_WCZRdY7-50" value="Account Ban" style="ellipse;whiteSpace=wrap;html=1;" vertex="1" parent="1">
          <mxGeometry x="330" y="490" width="95" height="50" as="geometry" />
        </mxCell>
        <mxCell id="-XwaJixAXSmG_WCZRdY7-51" value="Querries" style="ellipse;whiteSpace=wrap;html=1;" vertex="1" parent="1">
          <mxGeometry x="340" y="430" width="95" height="50" as="geometry" />
        </mxCell>
        <mxCell id="-XwaJixAXSmG_WCZRdY7-53" value="" style="endArrow=none;html=1;rounded=0;exitX=1;exitY=0.5;exitDx=0;exitDy=0;entryX=0.5;entryY=0.5;entryDx=0;entryDy=0;entryPerimeter=0;" edge="1" parent="1" source="-XwaJixAXSmG_WCZRdY7-51" target="-XwaJixAXSmG_WCZRdY7-24">
          <mxGeometry width="50" height="50" relative="1" as="geometry">
            <mxPoint x="535" y="519" as="sourcePoint" />
            <mxPoint x="695" y="290" as="targetPoint" />
          </mxGeometry>
        </mxCell>
        <mxCell id="-XwaJixAXSmG_WCZRdY7-54" value="" style="endArrow=none;html=1;rounded=0;entryX=0;entryY=0.5;entryDx=0;entryDy=0;exitX=0.5;exitY=0.5;exitDx=0;exitDy=0;exitPerimeter=0;" edge="1" parent="1" source="-XwaJixAXSmG_WCZRdY7-9" target="-XwaJixAXSmG_WCZRdY7-51">
          <mxGeometry width="50" height="50" relative="1" as="geometry">
            <mxPoint x="45" y="270" as="sourcePoint" />
            <mxPoint x="230" y="460" as="targetPoint" />
            <Array as="points">
              <mxPoint x="170" y="450" />
            </Array>
          </mxGeometry>
        </mxCell>
        <mxCell id="-XwaJixAXSmG_WCZRdY7-55" value="" style="endArrow=none;html=1;rounded=0;exitX=1;exitY=0.5;exitDx=0;exitDy=0;entryX=0.5;entryY=0.5;entryDx=0;entryDy=0;entryPerimeter=0;" edge="1" parent="1" source="-XwaJixAXSmG_WCZRdY7-50" target="-XwaJixAXSmG_WCZRdY7-24">
          <mxGeometry width="50" height="50" relative="1" as="geometry">
            <mxPoint x="445" y="465" as="sourcePoint" />
            <mxPoint x="695" y="290" as="targetPoint" />
          </mxGeometry>
        </mxCell>
        <mxCell id="-XwaJixAXSmG_WCZRdY7-56" value="" style="endArrow=none;html=1;rounded=0;entryX=0;entryY=0.5;entryDx=0;entryDy=0;exitX=0.5;exitY=0.5;exitDx=0;exitDy=0;exitPerimeter=0;" edge="1" parent="1" source="-XwaJixAXSmG_WCZRdY7-9" target="-XwaJixAXSmG_WCZRdY7-50">
          <mxGeometry width="50" height="50" relative="1" as="geometry">
            <mxPoint x="45" y="270" as="sourcePoint" />
            <mxPoint x="350" y="465" as="targetPoint" />
            <Array as="points">
              <mxPoint x="160" y="450" />
            </Array>
          </mxGeometry>
        </mxCell>
        <mxCell id="-XwaJixAXSmG_WCZRdY7-58" value="Managed by" style="endArrow=open;endSize=12;dashed=1;html=1;rounded=0;entryX=1;entryY=0;entryDx=0;entryDy=0;exitX=0;exitY=1;exitDx=0;exitDy=0;" edge="1" parent="1" source="-XwaJixAXSmG_WCZRdY7-50" target="-XwaJixAXSmG_WCZRdY7-44">
          <mxGeometry width="160" relative="1" as="geometry">
            <mxPoint x="306" y="450" as="sourcePoint" />
            <mxPoint x="215" y="569" as="targetPoint" />
          </mxGeometry>
        </mxCell>
      </root>
    </mxGraphModel>
  </diagram>
</mxfile>
